<mxfile host="app.diagrams.net" agent="Mozilla/5.0 (Macintosh; Intel Mac OS X 10_15_7) AppleWebKit/537.36 (KHTML, like Gecko) Chrome/129.0.0.0 Safari/537.36" version="24.8.0" pages="2">
  <diagram name="Page-1" id="pIWVlvGN1J2r77Dz_24P">
    <mxGraphModel dx="1401" dy="849" grid="1" gridSize="10" guides="1" tooltips="1" connect="1" arrows="1" fold="1" page="1" pageScale="1" pageWidth="850" pageHeight="1100" math="0" shadow="0">
      <root>
        <mxCell id="0" />
        <mxCell id="1" parent="0" />
        <mxCell id="hQbXisq50j8crm2XE9eQ-1" value="" style="rounded=0;whiteSpace=wrap;html=1;" parent="1" vertex="1">
          <mxGeometry x="190" y="250" width="140" height="150" as="geometry" />
        </mxCell>
        <mxCell id="hQbXisq50j8crm2XE9eQ-2" value="&lt;font style=&quot;font-size: 14px;&quot;&gt;&lt;b&gt;Project PlayRoll Sitemap&lt;/b&gt;&lt;/font&gt;" style="text;html=1;align=center;verticalAlign=middle;whiteSpace=wrap;rounded=0;" parent="1" vertex="1">
          <mxGeometry x="10" y="10" width="170" height="30" as="geometry" />
        </mxCell>
        <mxCell id="hQbXisq50j8crm2XE9eQ-3" value="Home (Dashboard)" style="text;html=1;align=center;verticalAlign=middle;whiteSpace=wrap;rounded=0;" parent="1" vertex="1">
          <mxGeometry x="230" y="260" width="60" height="30" as="geometry" />
        </mxCell>
        <mxCell id="hQbXisq50j8crm2XE9eQ-4" value="" style="rounded=0;whiteSpace=wrap;html=1;" parent="1" vertex="1">
          <mxGeometry x="100" y="510" width="140" height="150" as="geometry" />
        </mxCell>
        <mxCell id="hQbXisq50j8crm2XE9eQ-5" value="Create Roll State" style="text;html=1;align=center;verticalAlign=middle;resizable=0;points=[];autosize=1;strokeColor=none;fillColor=none;" parent="1" vertex="1">
          <mxGeometry x="115" y="510" width="110" height="30" as="geometry" />
        </mxCell>
        <mxCell id="hQbXisq50j8crm2XE9eQ-6" value="" style="rounded=0;whiteSpace=wrap;html=1;" parent="1" vertex="1">
          <mxGeometry x="270" y="510" width="140" height="150" as="geometry" />
        </mxCell>
        <mxCell id="hQbXisq50j8crm2XE9eQ-7" value="View Roll State" style="text;html=1;align=center;verticalAlign=middle;resizable=0;points=[];autosize=1;strokeColor=none;fillColor=none;" parent="1" vertex="1">
          <mxGeometry x="290" y="510" width="100" height="30" as="geometry" />
        </mxCell>
        <mxCell id="ocJGBMS8FdBQnnzTLDnc-1" value="" style="rounded=0;whiteSpace=wrap;html=1;" parent="1" vertex="1">
          <mxGeometry x="270" y="752" width="140" height="150" as="geometry" />
        </mxCell>
        <mxCell id="ocJGBMS8FdBQnnzTLDnc-2" value="Add Roll State" style="text;html=1;align=center;verticalAlign=middle;resizable=0;points=[];autosize=1;strokeColor=none;fillColor=none;" parent="1" vertex="1">
          <mxGeometry x="290" y="752" width="100" height="30" as="geometry" />
        </mxCell>
        <mxCell id="ocJGBMS8FdBQnnzTLDnc-3" value="" style="rounded=0;whiteSpace=wrap;html=1;" parent="1" vertex="1">
          <mxGeometry x="440" y="752" width="140" height="150" as="geometry" />
        </mxCell>
        <mxCell id="ocJGBMS8FdBQnnzTLDnc-4" value="Edit Roll State" style="text;html=1;align=center;verticalAlign=middle;resizable=0;points=[];autosize=1;strokeColor=none;fillColor=none;" parent="1" vertex="1">
          <mxGeometry x="460" y="752" width="100" height="30" as="geometry" />
        </mxCell>
        <mxCell id="ocJGBMS8FdBQnnzTLDnc-5" value="" style="rounded=0;whiteSpace=wrap;html=1;" parent="1" vertex="1">
          <mxGeometry x="610" y="752" width="140" height="150" as="geometry" />
        </mxCell>
        <mxCell id="ocJGBMS8FdBQnnzTLDnc-6" value="Share Roll State" style="text;html=1;align=center;verticalAlign=middle;resizable=0;points=[];autosize=1;strokeColor=none;fillColor=none;" parent="1" vertex="1">
          <mxGeometry x="625" y="752" width="110" height="30" as="geometry" />
        </mxCell>
        <mxCell id="ocJGBMS8FdBQnnzTLDnc-12" value="" style="endArrow=none;html=1;rounded=0;entryX=0.5;entryY=1;entryDx=0;entryDy=0;exitX=0.502;exitY=0.011;exitDx=0;exitDy=0;exitPerimeter=0;" parent="1" source="hQbXisq50j8crm2XE9eQ-5" target="hQbXisq50j8crm2XE9eQ-1" edge="1">
          <mxGeometry width="50" height="50" relative="1" as="geometry">
            <mxPoint x="170" y="500" as="sourcePoint" />
            <mxPoint x="450" y="480" as="targetPoint" />
            <Array as="points">
              <mxPoint x="170" y="440" />
              <mxPoint x="260" y="440" />
            </Array>
          </mxGeometry>
        </mxCell>
        <mxCell id="ocJGBMS8FdBQnnzTLDnc-13" value="" style="endArrow=none;html=1;rounded=0;entryX=0.5;entryY=1;entryDx=0;entryDy=0;exitX=0.599;exitY=0.002;exitDx=0;exitDy=0;exitPerimeter=0;" parent="1" source="hQbXisq50j8crm2XE9eQ-7" target="hQbXisq50j8crm2XE9eQ-1" edge="1">
          <mxGeometry width="50" height="50" relative="1" as="geometry">
            <mxPoint x="350" y="500" as="sourcePoint" />
            <mxPoint x="290" y="410" as="targetPoint" />
            <Array as="points">
              <mxPoint x="350" y="440" />
              <mxPoint x="260" y="440" />
            </Array>
          </mxGeometry>
        </mxCell>
        <mxCell id="ocJGBMS8FdBQnnzTLDnc-14" value="" style="endArrow=none;html=1;rounded=0;entryX=0.468;entryY=1.006;entryDx=0;entryDy=0;exitX=0.448;exitY=0.015;exitDx=0;exitDy=0;exitPerimeter=0;entryPerimeter=0;" parent="1" source="ocJGBMS8FdBQnnzTLDnc-2" target="hQbXisq50j8crm2XE9eQ-6" edge="1">
          <mxGeometry width="50" height="50" relative="1" as="geometry">
            <mxPoint x="400" y="729" as="sourcePoint" />
            <mxPoint x="330" y="660" as="targetPoint" />
            <Array as="points">
              <mxPoint x="335" y="700" />
            </Array>
          </mxGeometry>
        </mxCell>
        <mxCell id="ocJGBMS8FdBQnnzTLDnc-15" value="" style="endArrow=none;html=1;rounded=0;exitX=0.561;exitY=-0.057;exitDx=0;exitDy=0;exitPerimeter=0;entryX=0.472;entryY=1.019;entryDx=0;entryDy=0;entryPerimeter=0;" parent="1" target="hQbXisq50j8crm2XE9eQ-6" edge="1">
          <mxGeometry width="50" height="50" relative="1" as="geometry">
            <mxPoint x="516.1" y="750.29" as="sourcePoint" />
            <mxPoint x="335" y="700" as="targetPoint" />
            <Array as="points">
              <mxPoint x="516" y="700" />
              <mxPoint x="335" y="700" />
            </Array>
          </mxGeometry>
        </mxCell>
        <mxCell id="ocJGBMS8FdBQnnzTLDnc-16" value="" style="endArrow=none;html=1;rounded=0;exitX=0.511;exitY=-0.008;exitDx=0;exitDy=0;exitPerimeter=0;" parent="1" source="ocJGBMS8FdBQnnzTLDnc-6" edge="1">
          <mxGeometry width="50" height="50" relative="1" as="geometry">
            <mxPoint x="690" y="739" as="sourcePoint" />
            <mxPoint x="510" y="700" as="targetPoint" />
            <Array as="points">
              <mxPoint x="681" y="700" />
              <mxPoint x="620" y="700" />
            </Array>
          </mxGeometry>
        </mxCell>
        <mxCell id="ocJGBMS8FdBQnnzTLDnc-17" value="" style="rounded=0;whiteSpace=wrap;html=1;" parent="1" vertex="1">
          <mxGeometry x="190" y="80" width="140" height="150" as="geometry" />
        </mxCell>
        <mxCell id="ocJGBMS8FdBQnnzTLDnc-18" value="Landing Page" style="text;html=1;align=center;verticalAlign=middle;whiteSpace=wrap;rounded=0;" parent="1" vertex="1">
          <mxGeometry x="230" y="90" width="60" height="30" as="geometry" />
        </mxCell>
        <mxCell id="ocJGBMS8FdBQnnzTLDnc-19" value="" style="endArrow=none;html=1;rounded=0;entryX=0.5;entryY=1;entryDx=0;entryDy=0;exitX=0.5;exitY=0;exitDx=0;exitDy=0;" parent="1" source="hQbXisq50j8crm2XE9eQ-1" target="ocJGBMS8FdBQnnzTLDnc-17" edge="1">
          <mxGeometry width="50" height="50" relative="1" as="geometry">
            <mxPoint x="430" y="490" as="sourcePoint" />
            <mxPoint x="480" y="440" as="targetPoint" />
          </mxGeometry>
        </mxCell>
      </root>
    </mxGraphModel>
  </diagram>
  <diagram id="s0kTDZR8WtHlMNymJB9l" name="Page-2">
    <mxGraphModel dx="1401" dy="849" grid="1" gridSize="10" guides="1" tooltips="1" connect="1" arrows="1" fold="1" page="1" pageScale="1" pageWidth="850" pageHeight="1100" math="0" shadow="0">
      <root>
        <mxCell id="0" />
        <mxCell id="1" parent="0" />
      </root>
    </mxGraphModel>
  </diagram>
</mxfile>
